<?xml version="1.0" encoding="utf-8"?>
<!-- Generator: Adobe Illustrator 22.0.1, SVG Export Plug-In . SVG Version: 6.00 Build 0)  -->
<svg version="1.1" id="Layer_1" xmlns="http://www.w3.org/2000/svg" xmlns:xlink="http://www.w3.org/1999/xlink" x="0px" y="0px"
	 viewBox="0 0 64 64" style="enable-background:new 0 0 64 64;" xml:space="preserve">
<path d="M23,29h-6v6h6V29z M35,29h-6v6h6V29z M47,29h-6v6h6V29z M53,8h-3V2h-6v6H20V2h-6v6h-3c-3.3,0-6,2.7-6,6l0,42
	c0,3.3,2.7,6,6,6h42c3.3,0,6-2.7,6-6V14C59,10.7,56.3,8,53,8z M53,56H11V23h42V56z"/>
</svg>
