<?xml version="1.0" encoding="utf-8"?>
<!-- Generator: Adobe Illustrator 22.1.0, SVG Export Plug-In . SVG Version: 6.00 Build 0)  -->
<svg version="1.1" id="Layer_1" xmlns="http://www.w3.org/2000/svg" xmlns:xlink="http://www.w3.org/1999/xlink" x="0px" y="0px"
	 viewBox="0 0 499 107" style="enable-background:new 0 0 499 107;" xml:space="preserve">
<style type="text/css">
	.st0{fill:#FFFFFF;}
</style>
<g>
	<path class="st0" d="M53.8,50.4c-1.8,17.2-19.4,23-31.8,23c-15.4,0-19.2-9.1-14.7-27.7c4-16.8,4.8-28.2,4.8-34.1
		c-1.4,0.8-2.8,1.7-4.2,2.6c-4.7,3.2-9.4,0.4-3.2-4c6.2-4.5,13.3-8.4,22-9c13.2-1,27.3,4,25.8,17.5c-0.6,5.7-5.6,11.9-11.7,16
		C48.2,36.2,54.8,41.4,53.8,50.4z M31.5,38.9c-0.8,0.2-1.7,0.4-2.6,0.5c-3.8,0.4-3.2-4.5,0.5-5.1c6.3-1,9.1-8.7,9.8-14.5
		c1-9.4-4.9-12.7-12.6-12.5c1.9,7-0.9,19.9-4,30.7c-5.2,17.9-6.9,29.9,0.4,29.9c6.7,0,13.7-6.3,15-15.6C39.5,43,36,38.5,31.5,38.9z"
		/>
	<path class="st0" d="M95.2,58.7c-3.3,7.5-17.4,15.4-25.8,14.5c-10-1.1-15.1-9.9-11.4-23.2c4-14.3,25.8-23.5,31.3-13.2
		c4,7.4-5,20.5-17.7,25.3c-0.1,0.1-0.1,0.1-0.3,0.1c3.1,6.8,16.3,2.2,21.7-5.5C95.6,53.2,97.1,54.5,95.2,58.7z M70.4,57.9
		c8.2-5.4,12-17.1,10.2-20.4c-1.8-3.5-6.7,1.9-9.6,15C70.6,54.5,70.4,56.3,70.4,57.9z"/>
	<path class="st0" d="M138.7,67.4c-3.2,3-9.8,6.6-15.2,5.6c-4.1-0.7-7-2.8-8.6-6.5c-0.6,1.1-1.4,2-2.2,2.8
		c-3.1,2.7-6.6,4.4-10.7,3.9c-8.5-0.9-12.6-10.2-8.9-23.2c4-13.7,16.8-19.2,23.5-15.9c0.3-0.9,0.6-1.6,0.9-1.8
		c10.2-6.1,15.1-2.5,11.7,9.3c-1.9,6.5-4,17.4-2.4,21.6c1.2,3.4,5.1,5.2,9.3,1C140.4,60.2,144.1,62.6,138.7,67.4z M113.6,56.9
		c0-1,0.1-2.1,0.1-3.2c0.5-4.5,1.2-11.6,2.2-16.3c-4.2-1.4-9.4,5.8-11.6,15.3c-2.4,10.7,2.3,16.4,5.3,13.8
		C112,64.3,113.2,58.9,113.6,56.9z"/>
	<path class="st0" d="M179.8,69.3c-3.3,3-7.8,4.8-13.3,3.7c-4.1-0.7-6.9-2.8-8.5-6.5c-0.6,1-1.3,1.9-2.2,2.7c-3,2.8-7.9,4.4-12.1,4
		c-8.5-0.9-9.2-9.9-7.5-23.3c0.9-7.6,3.1-16,4.8-16.6c12-4.3,14.5,1.4,10.3,10.9c-1.9,4.2-3.9,10.2-3.9,15.3c0.1,6,1.6,8.6,3.9,6.7
		c2.3-2,5-7.5,5.3-9.5c0-1.1,0.1-2.2,0.2-3.3c0.7-6.8,2-20.2,3.7-21.2c10.1-6.1,15.3-2.5,11.8,9.2c-1.9,6.6-3.9,17.4-2.3,21.7
		c0.9,2.7,3.6,6.6,7.3,2.9C181.5,62,185.2,64.5,179.8,69.3z"/>
	<path class="st0" d="M194,33.8c-3.2,11.4-4.3,23.5-3,29.5c0.8,4,7.8,3,12-1.2c4.1-4.1,7.8-1.7,2.4,3.2c-5.8,5.2-12.2,8.6-18.1,7.9
		c-10.2-1.1-8.4-16-6.4-32.6c0.3-2.4,0.6-5.2,1.1-8.1c-1.9-0.5-3.4-1.1-4.4-1.9c-2.7-2-1.9-3.9-0.7-5.5c0.1-0.1,2.8,0.1,6.2,0.1
		c1.3-7.5,2.7-13.9,3.7-14.3c12.6-4.5,16.2,0.4,11.1,11.7c-0.1,0.4-0.4,0.8-0.6,1.2c7.1-1.7,11.1-4.2,11.5-3.5
		c3.7,6.2,3.1,10.2-1.3,11.7C204.5,33.2,199.2,33.8,194,33.8z"/>
	<path class="st0" d="M243.5,66.1c-2.9,1.1-7.8,3.5-10.4,4.6c-1.9,10.4-4.2,21.9-7.9,27.9c-5.8,9.3-18.4,8.9-22.2,0.6
		c-3.7-8.2,2.9-18.9,19.2-27.7c0.4-1.8,0.7-3.6,1-5.3c-3,4.5-7.1,7.8-12.4,7.2c-8.4-0.9-10.4-9.9-8.1-23.2
		c1.6-8.6,3.1-16.8,4.9-17.5c12-4.2,14.9,2.1,10.7,11.7c-1.9,4.2-3.7,10.3-3.6,15.4c0.1,6,1.5,8.7,3.7,6.7c3-2.5,5.3-9.6,6.4-15.8
		c0.1-3.2,0.1-6.3-0.2-10.1c-0.6-9,7.6-13.2,15.6-8.3c1.6,0.9-0.8,10.4-4.2,23.7c-0.7,2.8-1.4,6.3-2.1,10.2c1.9-0.7,6.2-2.9,8.2-3.5
		C247.8,61,246.9,64.9,243.5,66.1z M221,76.9c-11.7,7-15.5,13.8-13.5,18.6c1.3,3,5.4,3.7,8-0.5C216.9,92.6,219.2,84.8,221,76.9z"/>
	<path class="st0" d="M298.2,61c-3.2,7.2-13,13.5-24.8,12.2c-9.9-1.1-15.2-10-11.3-23.2c4.5-16,25.8-23.5,31.4-13.5
		c3.1,5.4-1.7,14.2-6.6,11.7c-2.4-1.2-1-6.8-2.4-9.1c-2.6-4-7.2,3-9.4,13.5c-3.7,17,13.8,16.8,21,6.4C298.5,55.5,300,56.8,298.2,61z
		"/>
	<path class="st0" d="M339.2,69.3c-3.2,3-7.8,4.8-13.2,3.7c-7.6-1.4-10.9-7.3-9.7-19.5c1.3-12.4-0.2-14-2.8-12.1
		c-1.6,1.1-4.3,5-5.9,9.1c-1.4,8.1-1.7,15.2-0.9,19.6c0.4,1.9-5.7,5.1-10.4,1.3c-1.8-1.6-0.9-16.7,1.2-31
		c1.6-11.2,6.6-35.2,8.4-35.9c12.5-5,16.2-0.3,11.7,11.2c-3,7.5-5.5,15.6-7.5,23.3c2.3-2.9,4.7-5,6.5-6.1c10.2-5.9,18.7-3,15.3,8.7
		c-1.9,6.6-3.5,17.5-2.5,22c1,5.1,4.5,6,7.9,2.6C341.3,62,344.6,64.5,339.2,69.3z"/>
	<path class="st0" d="M383.6,67.4c-3.2,3-9.8,6.6-15.2,5.6c-4.1-0.7-7-2.8-8.6-6.5c-0.6,1.1-1.4,2-2.2,2.8
		c-3.1,2.7-6.6,4.4-10.7,3.9c-8.5-0.9-12.6-10.2-8.9-23.2c4-13.7,16.8-19.2,23.5-15.9c0.3-0.9,0.6-1.6,0.9-1.8
		c10.2-6.1,15.1-2.5,11.7,9.3c-1.9,6.5-4,17.4-2.4,21.6c1.2,3.4,5.1,5.2,9.3,1C385.2,60.2,389,62.6,383.6,67.4z M358.5,56.9
		c0-1,0.1-2.1,0.1-3.2c0.5-4.5,1.2-11.6,2.2-16.3c-4.2-1.4-9.4,5.8-11.6,15.3c-2.4,10.7,2.3,16.4,5.3,13.8
		C356.9,64.3,358.1,58.9,358.5,56.9z"/>
	<path class="st0" d="M425.8,68.6c-3.2,3-8.6,5.5-14,4.5c-7.6-1.4-11.2-5.4-9.9-17.6c1.3-12.5-0.1-14-2.8-12.2
		c-4.2,3.1-7.3,12.5-8.1,21c0,2.2,0.2,4.2,0.6,6.2c0.3,2.1-6.8,4.2-10.4,1.3c-1.3-1.1-1.2-11.2,0.2-24.9c1.2-11.3,3.5-19.2,4.9-19.5
		c10.7-2.7,11.8,1.7,8.7,10.3c-1.4,3.5-2.3,6.9-2.9,10.1c2.8-6,6.5-10.9,10.2-13c10.2-5.9,18.6-3,15.1,8.7C415.4,50,414,59,415,63.5
		c1,5.1,5.3,5.3,8.7,1.9C427.8,61.3,431.2,63.8,425.8,68.6z"/>
	<path class="st0" d="M460.5,61c-3.2,7.2-13,13.5-24.8,12.2c-9.9-1.1-15.2-10-11.3-23.2c4.5-16,25.8-23.5,31.4-13.5
		c3.1,5.4-1.7,14.2-6.6,11.7c-2.4-1.2-1-6.8-2.4-9.1c-2.6-4-7.2,3-9.4,13.5c-3.7,17,13.8,16.8,21,6.4
		C460.8,55.5,462.3,56.8,460.5,61z"/>
	<path class="st0" d="M496.3,58.7c-3.3,7.5-17.4,15.4-25.8,14.5c-10-1.1-15.1-9.9-11.4-23.2c4-14.3,25.8-23.5,31.3-13.2
		c4,7.4-5,20.5-17.7,25.3c-0.1,0.1-0.1,0.1-0.3,0.1c3.1,6.8,16.3,2.2,21.7-5.5C496.7,53.2,498.2,54.5,496.3,58.7z M471.5,57.9
		c8.2-5.4,12-17.1,10.2-20.4c-1.8-3.5-6.7,1.9-9.6,15C471.7,54.5,471.5,56.3,471.5,57.9z"/>
</g>
</svg>
